# xmcd CD database file
# Copyright (C) 1993-1998 Ti Kan
#
# Track frame offsets:
#	150
#	11737
#	22990
#	34960
#	44927
#	55562
#	66452
#	77360
#	89197
#	101255
#	111187
#	122815
#	134125
#	145672
#	158595
#	170097
#
# Disc length: 2394 seconds
#
# Revision: 1
# Processed by: cddbd v1.4b41PL1 Copyright (c) Steve Scherf et al.
# Submitted via: CDValet v3.31 - Copyright (c) 1997 Greg Leichner
#
DISCID=e1095810
DTITLE=Patsy Cline - Walkin' After Midnight
DYEAR=1900
DGENRE=
TTITLE0=Walkin' After Midnight
TTITLE1=I Can See An Angel
TTITLE2=Never No More
TTITLE3=Heartaches
TTITLE4=Honky Tonk Merry Go Round
TTITLE5=I Cried All The Way To The Altar
TTITLE6=Three Cigarettes (In An Ashtray)
TTITLE7=In Care Of The Blues
TTITLE8=Sweet Dreams (Of You)
TTITLE9=Seven Lonely Days
TTITLE10=I've Loved And Lost Again
TTITLE11=Hungry For Love
TTITLE12=I Can't Forget You
TTITLE13=Fingerprints
TTITLE14=Just Out Of Reach
TTITLE15=True Love
EXTD=
EXTT0=
EXTT1=
EXTT2=
EXTT3=
EXTT4=
EXTT5=
EXTT6=
EXTT7=
EXTT8=
EXTT9=
EXTT10=
EXTT11=
EXTT12=
EXTT13=
EXTT14=
EXTT15=
PLAYORDER=
